<svg xmlns="http://www.w3.org/2000/svg" version="1.1" xmlns:xlink="http://www.w3.org/1999/xlink" xmlns:svgjs="http://svgjs.dev/svgjs" width="100%" height="100%" viewBox="0 0 1000 600"><rect width="1000" height="600" x="0" y="0" fill="#f3f4f6"/><g><rect width="333.3333333333333" height="333.3333333333333" y="77.77777014838344" fill="#1a374d" transform="matrix(2.2499999313354513,0,0,2.2499999313354517,0,-249.99999084472722)" x="55.55555725097656"/><path d="M221.49043911120816 243.19611652878737L221.49043911120816 243.19611652878737Q221.49043911120816 265.52249694989723 212.4221406368242 282.65469375118585Q203.32514501536943 299.8155876995454 186.7955883025683 309.630011997771Q170.26603158976718 319.44443629599675 147.73877113916149 319.44443629599675L147.73877113916149 319.44443629599675Q125.41239071805163 319.44443629599675 109.51417124080889 309.94568061555026Q93.61595176356614 300.44692493510377 85.0355047893864 283.68779104573593Q76.45505781520666 266.95735430343893 76.45505781520666 245.69276832395005L76.45505781520666 245.69276832395005Q76.45505781520666 223.56726793233602 85.55205343666142 206.32028254276403Q94.64904905811622 189.07329715319204 111.26469721212985 179.2588728549664Q127.9090425132143 169.44444855674072 150.20672578725333 169.44444855674072L150.20672578725333 169.44444855674072Q172.3322261788673 169.44444855674072 188.23044565611008 178.94320423718722Q204.15736228042365 188.44195991763368 212.8239006958159 205.08630521871814Q221.49043911120816 221.70195337273177 221.49043911120816 243.19611652878737ZM195.89258392402309 245.26231111788755L195.89258392402309 245.26231111788755Q195.89258392402309 232.66426355379085 193.3959321288604 220.66885607818168Q190.9279774807686 208.7021457496434 185.44682239023905 198.9738128926302Q179.96566729970948 189.2741771826879 171.0982488548214 183.59214206266253Q162.20213326286245 177.91010694263713 149.40320566926994 177.91010694263713L149.40320566926994 177.91010694263713Q136.37470089911074 177.91010694263713 127.39249386593927 183.70693065094585Q118.41028683276784 189.4750572121837 112.9291317422383 198.9738128926302Q107.44797665170876 208.50126572014753 104.86523341533358 220.26709601919Q102.2824901789584 232.03292631823243 102.2824901789584 244.22921382333746L102.2824901789584 244.22921382333746Q102.2824901789584 256.22462129894654 104.86523341533358 268.10524018627234Q107.44797665170876 279.98585907359825 113.01522318345079 289.68549478354055Q118.61116686226367 299.4138276405537 127.79425392493096 305.29674279007486Q137.0060381346691 311.17965793959615 150.00584575775747 311.17965793959615L150.00584575775747 311.17965793959615Q162.83347049842087 311.17965793959615 171.61479750209642 305.6124114078541Q180.39612450577204 300.0164677290412 185.76249100801823 290.63250063687804Q191.12885751026442 281.21983639764414 193.51072071714376 269.45400609860167Q195.89258392402309 257.65947865248836 195.89258392402309 245.26231111788755ZM217.98938716856625 316.5460244418423L217.98938716856625 316.5460244418423Q217.58762710957456 313.24585252869633 217.98938716856625 309.94568061555026L217.98938716856625 309.94568061555026Q223.78621087687497 309.3143433799919 227.28726281951685 308.4821261149376Q230.7883147621588 307.6786059969543 233.28496655732144 305.4976228195708Q235.7529212054133 303.3166396421873 238.01999582400927 298.89727899327863Q240.31576758967608 294.44922119729915 243.41505947332632 286.3853228703945L243.41505947332632 286.3853228703945L288.03912316847516 171.91240320483257Q290.30619778707114 171.08018593977835 293.5202782590047 170.67842588078662Q296.70566158386737 170.27666582179495 298.9727362024634 170.27666582179495L298.9727362024634 170.27666582179495L343.3959198681165 288.25063742999873Q346.2943317222707 295.68319852134505 348.1596462818751 299.9303762878287Q350.02496084147936 304.14885690724145 352.29203546007534 306.0141714668458Q354.5591100786713 307.8794860264501 358.08885916838403 308.59691470322093Q361.589911111026 309.3143433799919 367.78849487832645 309.94568061555026L367.78849487832645 309.94568061555026Q368.1902549373182 313.24585252869633 367.78849487832645 316.5460244418423L367.78849487832645 316.5460244418423Q360.55681381647594 316.5460244418423 352.9233726956337 316.3451444123465Q345.26123442772075 316.1442643828507 337.6277933068785 316.1442643828507L337.6277933068785 316.1442643828507Q329.76477500946964 316.1442643828507 321.8156652708483 316.3451444123465Q313.8665555322269 316.5460244418423 306.00353723481805 316.5460244418423L306.00353723481805 316.5460244418423Q305.4008971463305 313.44673255819214 306.00353723481805 309.94568061555026L306.00353723481805 309.94568061555026Q316.1336301508229 308.91258332100017 320.06513929952735 307.96557746766257Q323.9966484482318 307.0472687613959 323.9966484482318 303.1157596126915L323.9966484482318 303.1157596126915Q323.9966484482318 301.48002222965385 323.3653112126734 299.4138276405537Q322.73397397711506 297.3476330514535 321.70087668256497 294.24834116780335L321.70087668256497 294.24834116780335L309.9350463835225 262.42320506624696L263.44566812876934 262.42320506624696L253.11469518326862 290.91947210758644Q251.67983782972686 294.8509812562909 250.93371200588518 297.433724492666Q250.21628332911428 300.0164677290412 250.21628332911428 302.0826623181414L250.21628332911428 302.0826623181414Q250.21628332911428 306.6455087024042 254.46346109559786 307.76469743816676Q258.6819417150107 308.91258332100017 268.4102745720238 309.94568061555026L268.4102745720238 309.94568061555026Q268.81203463101554 313.44673255819214 268.4102745720238 316.5460244418423L268.4102745720238 316.5460244418423Q261.3794735396692 316.5460244418423 254.5495525368104 316.3451444123465Q247.74832868102243 316.1442643828507 240.7175276486678 316.1442643828507L240.7175276486678 316.1442643828507Q234.92070394035906 316.1442643828507 229.5543374381129 316.3451444123465Q224.18797093586667 316.5460244418423 217.98938716856625 316.5460244418423ZM286.5755686678625 198.7729328631344L266.54496001241955 253.72796950378395L306.8357544998723 253.72796950378395L286.5755686678625 198.7729328631344Z " fill="#f3f4f6" transform="matrix(2.2499999313354513,0,0,2.2499999313354517,0,-249.99999084472722)"/><path d="MNaN 244.44444105360233 " fill="#1a374d" transform="matrix(2.2499999313354513,0,0,2.2499999313354517,0,-249.99999084472722)"/></g></svg>